<mxfile host="app.diagrams.net" agent="Mozilla/5.0 (Windows NT 10.0; Win64; x64) AppleWebKit/537.36 (KHTML, like Gecko) Chrome/137.0.0.0 Safari/537.36" version="27.1.6">
  <diagram id="C5RBs43oDa-KdzZeNtuy" name="Page-1">
    <mxGraphModel dx="827" dy="935" grid="1" gridSize="10" guides="1" tooltips="1" connect="1" arrows="1" fold="1" page="1" pageScale="1" pageWidth="827" pageHeight="1169" math="0" shadow="0">
      <root>
        <mxCell id="WIyWlLk6GJQsqaUBKTNV-0" />
        <mxCell id="WIyWlLk6GJQsqaUBKTNV-1" parent="WIyWlLk6GJQsqaUBKTNV-0" />
        <mxCell id="5OKmxcMu6-beXj354qPA-26" value="" style="edgeStyle=orthogonalEdgeStyle;rounded=0;orthogonalLoop=1;jettySize=auto;html=1;" edge="1" parent="WIyWlLk6GJQsqaUBKTNV-1" source="5OKmxcMu6-beXj354qPA-0" target="5OKmxcMu6-beXj354qPA-8">
          <mxGeometry relative="1" as="geometry" />
        </mxCell>
        <mxCell id="5OKmxcMu6-beXj354qPA-0" value="Download Raw Dataset" style="rounded=1;whiteSpace=wrap;html=1;" vertex="1" parent="WIyWlLk6GJQsqaUBKTNV-1">
          <mxGeometry x="131.75" y="230" width="120" height="60" as="geometry" />
        </mxCell>
        <mxCell id="5OKmxcMu6-beXj354qPA-24" style="edgeStyle=orthogonalEdgeStyle;rounded=0;orthogonalLoop=1;jettySize=auto;html=1;exitX=0.5;exitY=1;exitDx=0;exitDy=0;entryX=0.5;entryY=0;entryDx=0;entryDy=0;" edge="1" parent="WIyWlLk6GJQsqaUBKTNV-1" source="5OKmxcMu6-beXj354qPA-1" target="5OKmxcMu6-beXj354qPA-0">
          <mxGeometry relative="1" as="geometry" />
        </mxCell>
        <mxCell id="5OKmxcMu6-beXj354qPA-1" value="Start TMDB ETL Process" style="ellipse;whiteSpace=wrap;html=1;" vertex="1" parent="WIyWlLk6GJQsqaUBKTNV-1">
          <mxGeometry x="131.75" y="130" width="120" height="60" as="geometry" />
        </mxCell>
        <mxCell id="5OKmxcMu6-beXj354qPA-30" value="" style="edgeStyle=orthogonalEdgeStyle;rounded=0;orthogonalLoop=1;jettySize=auto;html=1;" edge="1" parent="WIyWlLk6GJQsqaUBKTNV-1" source="5OKmxcMu6-beXj354qPA-8" target="5OKmxcMu6-beXj354qPA-29">
          <mxGeometry relative="1" as="geometry" />
        </mxCell>
        <mxCell id="5OKmxcMu6-beXj354qPA-8" value="&lt;table&gt;&lt;tbody&gt;&lt;tr&gt;&lt;td data-end=&quot;969&quot; data-start=&quot;931&quot; data-col-size=&quot;sm&quot;&gt;&lt;code data-end=&quot;968&quot; data-start=&quot;933&quot;&gt;&lt;font face=&quot;Helvetica&quot;&gt;Load Raw Dataset to &lt;br&gt;Local Storage&lt;/font&gt;&lt;/code&gt;&lt;/td&gt;&lt;/tr&gt;&lt;/tbody&gt;&lt;/table&gt;&lt;table&gt;&lt;tbody&gt;&lt;tr&gt;&lt;td data-end=&quot;1008&quot; data-start=&quot;969&quot; data-col-size=&quot;sm&quot;&gt;&lt;/td&gt;&lt;/tr&gt;&lt;/tbody&gt;&lt;/table&gt;" style="shape=parallelogram;perimeter=parallelogramPerimeter;whiteSpace=wrap;html=1;fixedSize=1;" vertex="1" parent="WIyWlLk6GJQsqaUBKTNV-1">
          <mxGeometry x="113" y="340" width="157.5" height="60" as="geometry" />
        </mxCell>
        <mxCell id="5OKmxcMu6-beXj354qPA-51" style="edgeStyle=orthogonalEdgeStyle;rounded=0;orthogonalLoop=1;jettySize=auto;html=1;exitX=0;exitY=0.5;exitDx=0;exitDy=0;entryX=0;entryY=0.5;entryDx=0;entryDy=0;" edge="1" parent="WIyWlLk6GJQsqaUBKTNV-1" source="5OKmxcMu6-beXj354qPA-9" target="5OKmxcMu6-beXj354qPA-29">
          <mxGeometry relative="1" as="geometry" />
        </mxCell>
        <mxCell id="5OKmxcMu6-beXj354qPA-52" value="If not Exist" style="edgeLabel;html=1;align=center;verticalAlign=middle;resizable=0;points=[];" vertex="1" connectable="0" parent="5OKmxcMu6-beXj354qPA-51">
          <mxGeometry x="-0.1814" y="-1" relative="1" as="geometry">
            <mxPoint as="offset" />
          </mxGeometry>
        </mxCell>
        <mxCell id="5OKmxcMu6-beXj354qPA-74" style="edgeStyle=orthogonalEdgeStyle;rounded=0;orthogonalLoop=1;jettySize=auto;html=1;exitX=1;exitY=0.5;exitDx=0;exitDy=0;entryX=0;entryY=0.25;entryDx=0;entryDy=0;" edge="1" parent="WIyWlLk6GJQsqaUBKTNV-1" source="5OKmxcMu6-beXj354qPA-9" target="5OKmxcMu6-beXj354qPA-10">
          <mxGeometry relative="1" as="geometry">
            <Array as="points">
              <mxPoint x="290" y="580" />
              <mxPoint x="290" y="233" />
            </Array>
          </mxGeometry>
        </mxCell>
        <mxCell id="5OKmxcMu6-beXj354qPA-75" value="If Exist" style="edgeLabel;html=1;align=center;verticalAlign=middle;resizable=0;points=[];" vertex="1" connectable="0" parent="5OKmxcMu6-beXj354qPA-74">
          <mxGeometry x="-0.306" y="-1" relative="1" as="geometry">
            <mxPoint y="-1" as="offset" />
          </mxGeometry>
        </mxCell>
        <mxCell id="5OKmxcMu6-beXj354qPA-9" value="Check if Raw&amp;nbsp;&lt;div&gt;Dataset Exists&lt;/div&gt;" style="rhombus;whiteSpace=wrap;html=1;" vertex="1" parent="WIyWlLk6GJQsqaUBKTNV-1">
          <mxGeometry x="121.75" y="540" width="140" height="80" as="geometry" />
        </mxCell>
        <mxCell id="5OKmxcMu6-beXj354qPA-17" value="" style="group" vertex="1" connectable="0" parent="WIyWlLk6GJQsqaUBKTNV-1">
          <mxGeometry x="368" y="720" width="120" height="74" as="geometry" />
        </mxCell>
        <mxCell id="5OKmxcMu6-beXj354qPA-14" value="" style="shape=cylinder3;whiteSpace=wrap;html=1;boundedLbl=1;backgroundOutline=1;size=15;rotation=90;" vertex="1" parent="5OKmxcMu6-beXj354qPA-17">
          <mxGeometry x="18" y="-15.857142857142858" width="84" height="105.71428571428571" as="geometry" />
        </mxCell>
        <mxCell id="5OKmxcMu6-beXj354qPA-15" value="Local File System" style="text;html=1;align=center;verticalAlign=middle;whiteSpace=wrap;rounded=0;" vertex="1" parent="5OKmxcMu6-beXj354qPA-17">
          <mxGeometry x="18" y="23.785714285714285" width="60" height="26.428571428571427" as="geometry" />
        </mxCell>
        <mxCell id="5OKmxcMu6-beXj354qPA-61" style="edgeStyle=orthogonalEdgeStyle;rounded=0;orthogonalLoop=1;jettySize=auto;html=1;exitX=1;exitY=0.5;exitDx=0;exitDy=0;entryX=0;entryY=0.5;entryDx=0;entryDy=0;" edge="1" parent="WIyWlLk6GJQsqaUBKTNV-1" source="5OKmxcMu6-beXj354qPA-18" target="5OKmxcMu6-beXj354qPA-20">
          <mxGeometry relative="1" as="geometry" />
        </mxCell>
        <mxCell id="5OKmxcMu6-beXj354qPA-18" value="Generate Dim and&amp;nbsp;&lt;div&gt;Fact DataFrames&lt;/div&gt;" style="shape=parallelogram;perimeter=parallelogramPerimeter;whiteSpace=wrap;html=1;fixedSize=1;" vertex="1" parent="WIyWlLk6GJQsqaUBKTNV-1">
          <mxGeometry x="353" y="600" width="150" height="60" as="geometry" />
        </mxCell>
        <mxCell id="5OKmxcMu6-beXj354qPA-60" style="edgeStyle=orthogonalEdgeStyle;rounded=0;orthogonalLoop=1;jettySize=auto;html=1;exitX=0.5;exitY=1;exitDx=0;exitDy=0;entryX=0.5;entryY=0;entryDx=0;entryDy=0;" edge="1" parent="WIyWlLk6GJQsqaUBKTNV-1" source="5OKmxcMu6-beXj354qPA-20" target="5OKmxcMu6-beXj354qPA-22">
          <mxGeometry relative="1" as="geometry" />
        </mxCell>
        <mxCell id="5OKmxcMu6-beXj354qPA-20" value="Load Data into BigQuery" style="rounded=1;whiteSpace=wrap;html=1;" vertex="1" parent="WIyWlLk6GJQsqaUBKTNV-1">
          <mxGeometry x="593" y="270" width="120" height="60" as="geometry" />
        </mxCell>
        <mxCell id="5OKmxcMu6-beXj354qPA-21" value="Data Warehouse (Big Query)" style="shape=cylinder3;whiteSpace=wrap;html=1;boundedLbl=1;backgroundOutline=1;size=15;" vertex="1" parent="WIyWlLk6GJQsqaUBKTNV-1">
          <mxGeometry x="598" y="130" width="110" height="90" as="geometry" />
        </mxCell>
        <mxCell id="5OKmxcMu6-beXj354qPA-22" value="End TMDB ETL Process" style="ellipse;whiteSpace=wrap;html=1;" vertex="1" parent="WIyWlLk6GJQsqaUBKTNV-1">
          <mxGeometry x="593" y="380" width="120" height="60" as="geometry" />
        </mxCell>
        <mxCell id="5OKmxcMu6-beXj354qPA-28" value="" style="group" vertex="1" connectable="0" parent="WIyWlLk6GJQsqaUBKTNV-1">
          <mxGeometry x="353" y="130" width="150" height="410" as="geometry" />
        </mxCell>
        <mxCell id="5OKmxcMu6-beXj354qPA-10" value="" style="rounded=1;whiteSpace=wrap;html=1;fillColor=none;" vertex="1" parent="5OKmxcMu6-beXj354qPA-28">
          <mxGeometry width="150" height="410" as="geometry" />
        </mxCell>
        <mxCell id="5OKmxcMu6-beXj354qPA-65" style="edgeStyle=orthogonalEdgeStyle;rounded=0;orthogonalLoop=1;jettySize=auto;html=1;exitX=0.5;exitY=1;exitDx=0;exitDy=0;entryX=0.5;entryY=0;entryDx=0;entryDy=0;" edge="1" parent="5OKmxcMu6-beXj354qPA-28" source="5OKmxcMu6-beXj354qPA-3" target="5OKmxcMu6-beXj354qPA-5">
          <mxGeometry relative="1" as="geometry" />
        </mxCell>
        <mxCell id="5OKmxcMu6-beXj354qPA-3" value="Create Spark DataFrame" style="rounded=1;whiteSpace=wrap;html=1;" vertex="1" parent="5OKmxcMu6-beXj354qPA-28">
          <mxGeometry x="15" y="40" width="120" height="60" as="geometry" />
        </mxCell>
        <mxCell id="5OKmxcMu6-beXj354qPA-66" style="edgeStyle=orthogonalEdgeStyle;rounded=0;orthogonalLoop=1;jettySize=auto;html=1;exitX=0.5;exitY=1;exitDx=0;exitDy=0;entryX=0.5;entryY=0;entryDx=0;entryDy=0;" edge="1" parent="5OKmxcMu6-beXj354qPA-28" source="5OKmxcMu6-beXj354qPA-5" target="5OKmxcMu6-beXj354qPA-23">
          <mxGeometry relative="1" as="geometry" />
        </mxCell>
        <mxCell id="5OKmxcMu6-beXj354qPA-5" value="Run Cleansing&lt;div&gt;Script&lt;/div&gt;" style="rounded=1;whiteSpace=wrap;html=1;" vertex="1" parent="5OKmxcMu6-beXj354qPA-28">
          <mxGeometry x="15" y="140" width="120" height="60" as="geometry" />
        </mxCell>
        <mxCell id="5OKmxcMu6-beXj354qPA-6" value="Run Transformation Script" style="rounded=1;whiteSpace=wrap;html=1;" vertex="1" parent="5OKmxcMu6-beXj354qPA-28">
          <mxGeometry x="15" y="325" width="120" height="60" as="geometry" />
        </mxCell>
        <mxCell id="5OKmxcMu6-beXj354qPA-11" value="Data Cleansing" style="text;html=1;align=center;verticalAlign=middle;whiteSpace=wrap;rounded=0;" vertex="1" parent="5OKmxcMu6-beXj354qPA-28">
          <mxGeometry x="20" width="110" height="30" as="geometry" />
        </mxCell>
        <mxCell id="5OKmxcMu6-beXj354qPA-67" style="edgeStyle=orthogonalEdgeStyle;rounded=0;orthogonalLoop=1;jettySize=auto;html=1;exitX=0.5;exitY=1;exitDx=0;exitDy=0;entryX=0.5;entryY=0;entryDx=0;entryDy=0;" edge="1" parent="5OKmxcMu6-beXj354qPA-28" source="5OKmxcMu6-beXj354qPA-23" target="5OKmxcMu6-beXj354qPA-6">
          <mxGeometry relative="1" as="geometry" />
        </mxCell>
        <mxCell id="5OKmxcMu6-beXj354qPA-23" value="Cleaned Dataset" style="shape=parallelogram;perimeter=parallelogramPerimeter;whiteSpace=wrap;html=1;fixedSize=1;" vertex="1" parent="5OKmxcMu6-beXj354qPA-28">
          <mxGeometry x="15" y="230" width="120" height="60" as="geometry" />
        </mxCell>
        <mxCell id="5OKmxcMu6-beXj354qPA-31" value="" style="edgeStyle=orthogonalEdgeStyle;rounded=0;orthogonalLoop=1;jettySize=auto;html=1;" edge="1" parent="WIyWlLk6GJQsqaUBKTNV-1" source="5OKmxcMu6-beXj354qPA-29" target="5OKmxcMu6-beXj354qPA-9">
          <mxGeometry relative="1" as="geometry" />
        </mxCell>
        <mxCell id="5OKmxcMu6-beXj354qPA-29" value="" style="ellipse;whiteSpace=wrap;html=1;aspect=fixed;" vertex="1" parent="WIyWlLk6GJQsqaUBKTNV-1">
          <mxGeometry x="176.75" y="455" width="30" height="30" as="geometry" />
        </mxCell>
        <mxCell id="5OKmxcMu6-beXj354qPA-48" style="edgeStyle=orthogonalEdgeStyle;rounded=0;orthogonalLoop=1;jettySize=auto;html=1;exitX=0.5;exitY=0;exitDx=0;exitDy=0;entryX=0.5;entryY=1;entryDx=0;entryDy=0;entryPerimeter=0;" edge="1" parent="WIyWlLk6GJQsqaUBKTNV-1" source="5OKmxcMu6-beXj354qPA-20" target="5OKmxcMu6-beXj354qPA-21">
          <mxGeometry relative="1" as="geometry" />
        </mxCell>
        <mxCell id="5OKmxcMu6-beXj354qPA-55" style="edgeStyle=orthogonalEdgeStyle;rounded=0;orthogonalLoop=1;jettySize=auto;html=1;exitX=1;exitY=0.5;exitDx=0;exitDy=0;entryX=0.5;entryY=1;entryDx=0;entryDy=0;entryPerimeter=0;" edge="1" parent="WIyWlLk6GJQsqaUBKTNV-1" source="5OKmxcMu6-beXj354qPA-8" target="5OKmxcMu6-beXj354qPA-14">
          <mxGeometry relative="1" as="geometry" />
        </mxCell>
        <mxCell id="5OKmxcMu6-beXj354qPA-57" style="edgeStyle=orthogonalEdgeStyle;rounded=0;orthogonalLoop=1;jettySize=auto;html=1;exitX=0.5;exitY=1;exitDx=0;exitDy=0;entryX=0.5;entryY=0;entryDx=0;entryDy=0;" edge="1" parent="WIyWlLk6GJQsqaUBKTNV-1" source="5OKmxcMu6-beXj354qPA-10" target="5OKmxcMu6-beXj354qPA-18">
          <mxGeometry relative="1" as="geometry" />
        </mxCell>
        <mxCell id="5OKmxcMu6-beXj354qPA-58" style="edgeStyle=orthogonalEdgeStyle;rounded=0;orthogonalLoop=1;jettySize=auto;html=1;exitX=0.5;exitY=1;exitDx=0;exitDy=0;entryX=0;entryY=0.5;entryDx=0;entryDy=0;entryPerimeter=0;" edge="1" parent="WIyWlLk6GJQsqaUBKTNV-1" source="5OKmxcMu6-beXj354qPA-18" target="5OKmxcMu6-beXj354qPA-14">
          <mxGeometry relative="1" as="geometry" />
        </mxCell>
        <mxCell id="5OKmxcMu6-beXj354qPA-71" value="&lt;b&gt;Ingestion Phase&lt;/b&gt;" style="rounded=0;whiteSpace=wrap;html=1;" vertex="1" parent="WIyWlLk6GJQsqaUBKTNV-1">
          <mxGeometry x="74" y="40" width="240" height="60" as="geometry" />
        </mxCell>
        <mxCell id="5OKmxcMu6-beXj354qPA-72" value="&lt;b&gt;Data Prcessing Phase&lt;/b&gt;" style="rounded=0;whiteSpace=wrap;html=1;" vertex="1" parent="WIyWlLk6GJQsqaUBKTNV-1">
          <mxGeometry x="314" y="40" width="230" height="60" as="geometry" />
        </mxCell>
        <mxCell id="5OKmxcMu6-beXj354qPA-73" value="&lt;b&gt;Data Load Phase&lt;/b&gt;" style="rounded=0;whiteSpace=wrap;html=1;" vertex="1" parent="WIyWlLk6GJQsqaUBKTNV-1">
          <mxGeometry x="544" y="40" width="210" height="60" as="geometry" />
        </mxCell>
      </root>
    </mxGraphModel>
  </diagram>
</mxfile>
